<?xml version="1.0" encoding="utf-8"?><svg viewBox="0 0 100 100" xmlns="http://www.w3.org/2000/svg" xmlns:xlink="http://www.w3.org/1999/xlink"><style>:root>svg{display:none}:root>svg:target{display:block}</style><svg viewBox="0 0 9 6" id="arrowDown" xmlns="http://www.w3.org/2000/svg"><path d="M1 1l3.5 3.5L8 1"/></svg><svg viewBox="0 0 11 18" id="arrowLeftRight" xmlns="http://www.w3.org/2000/svg"><path d="M1 1l8 8-8 8" stroke="#fff" stroke-width="2" stroke-linecap="round"/></svg><svg viewBox="0 0 21 12" id="arrowLong" xmlns="http://www.w3.org/2000/svg"><path d="M20.53 6.53a.75.75 0 000-1.06L15.757.697a.75.75 0 00-1.06 1.06L18.939 6l-4.242 4.243a.75.75 0 001.06 1.06L20.53 6.53zM0 6.75h20v-1.5H0v1.5z"/></svg><svg viewBox="0 0 20 18" id="basket" xmlns="http://www.w3.org/2000/svg"><path d="M20 6.5h-3.396L13.036.553a.625.625 0 00-1.072.644L15.146 6.5H4.854l3.182-5.303A.625.625 0 106.964.553L3.396 6.5H0v1.25h1.357l1.587 8.47c.166.887.941 1.53 1.844 1.53h10.424c.902 0 1.678-.643 1.843-1.53l1.588-8.47H20V6.5zm-4.174 9.49a.624.624 0 01-.614.51H4.788c-.301 0-.56-.214-.615-.51L2.628 7.75h14.744l-1.546 8.24z"/></svg><svg viewBox="0 0 8 7" id="check" xmlns="http://www.w3.org/2000/svg"><path fill-rule="evenodd" clip-rule="evenodd" d="M8 1.307L4.26 5.228 3.015 6.535 1.768 5.228l.007-.007L0 3.34l1.247-1.307L3.02 3.914 6.754 0 8 1.307z"/></svg><svg viewBox="0 0 14 14" id="circle" xmlns="http://www.w3.org/2000/svg"><circle cx="7" cy="7" r="7"/></svg><svg viewBox="0 0 16 16" id="clock" xmlns="http://www.w3.org/2000/svg"><path d="M8 0C3.589 0 0 3.589 0 8s3.589 8 8 8 8-3.589 8-8-3.589-8-8-8zm3.805 12.138a.665.665 0 01-.943 0L7.53 8.805a.664.664 0 01-.196-.472V4a.666.666 0 111.334 0v4.057l3.138 3.138c.26.261.26.682 0 .943z"/></svg><svg viewBox="0 0 16 16" id="cross" xmlns="http://www.w3.org/2000/svg"><path d="M2 2l12 12M2 14L14 2"/></svg><svg viewBox="0 0 60 60" id="discount" xmlns="http://www.w3.org/2000/svg"><path d="M37.856 20.544a1.77 1.77 0 00-2.232 0l-15.08 15.081a1.616 1.616 0 000 2.232l13.08 13.08c.309.24.686.374 1.077.385.416 0 .821-.135 1.154-.385l15.081-15.08c.25-.334.385-.739.385-1.155a1.846 1.846 0 00-.385-1.077l-13.08-13.08zM34.7 47.63l-10.85-10.926 12.85-12.85 10.927 10.849L34.7 47.629z"/><path d="M58.269 31.338a6.142 6.142 0 00-.099-.099L33.932 7.003a6.232 6.232 0 00-4.54-1.847l-19.235.539a3.847 3.847 0 00-1.847.462L2.462.308A1.54 1.54 0 00.308 2.462L6.156 8.31a3.847 3.847 0 00-.462 1.847l-.539 19.236a6.232 6.232 0 001.847 4.54L31.239 58.17a6.079 6.079 0 008.695 0L58.17 39.934a6.078 6.078 0 00.099-8.596zm-2.22 6.408a2.614 2.614 0 01-.033.034L37.78 56.016a3.232 3.232 0 01-4.386 0L9.156 31.778a3.231 3.231 0 01-.923-2.308l.539-18.544 5.309 5.31a7.002 7.002 0 00-1 3.539 6.771 6.771 0 106.694-6.694 7.003 7.003 0 00-3.54 1l-5.309-5.31 18.62-.538h.078a3.386 3.386 0 012.154.923l24.238 24.238a3.078 3.078 0 01.033 4.352zm-39.89-17.971a3.616 3.616 0 013.616-3.617 3.693 3.693 0 013.693 3.617 3.77 3.77 0 01-3.693 3.693 3.693 3.693 0 01-3.617-3.693z"/></svg><svg viewBox="0 0 8 7" id="done" xmlns="http://www.w3.org/2000/svg"><path fill-rule="evenodd" clip-rule="evenodd" fill="#fff" d="M8 1.307L4.26 5.228 3.015 6.535 1.768 5.228l.007-.007L0 3.34l1.247-1.307L3.02 3.914 6.754 0 8 1.307z"/></svg><svg viewBox="0 0 100 100" id="doneCircle" xmlns="http://www.w3.org/2000/svg"><path d="M68.75 31.65L44.55 56.3l-12.4-12.45-6.65 6.65L45.05 70l31.4-30.45-7.7-7.9z"/><path d="M50 0C22.386 0 0 22.386 0 50s22.386 50 50 50 50-22.386 50-50S77.614 0 50 0zm0 90.95C27.384 90.95 9.05 72.616 9.05 50 9.05 27.384 27.384 9.05 50 9.05 72.604 9.077 90.922 27.395 90.95 50c0 22.616-18.334 40.95-40.95 40.95z"/></svg><svg viewBox="0 0 16 16" id="edit" xmlns="http://www.w3.org/2000/svg"><path d="M0 12.666V16h3.334l9.837-9.837-3.334-3.334L0 12.666zM15.74 2.336L13.664.26a.89.89 0 00-1.258 0L10.78 1.887l3.334 3.334 1.627-1.627a.89.89 0 000-1.258z"/></svg><svg viewBox="0 0 18 16" id="filter" xmlns="http://www.w3.org/2000/svg"><path d="M17.049 8.524h-2.982a.619.619 0 01-.63-.63c0-.357.274-.63.63-.63h2.982c.357 0 .63.273.63.63s-.273.63-.63.63zM9.511 8.524H.63a.619.619 0 01-.63-.63c0-.356.273-.63.63-.63H9.51c.357 0 .63.274.63.63 0 .357-.273.63-.63.63z"/><path d="M11.776 10.793A2.903 2.903 0 018.88 7.896a2.903 2.903 0 012.897-2.898 2.903 2.903 0 012.898 2.898 2.903 2.903 0 01-2.898 2.897zm0-4.535a1.64 1.64 0 00-1.637 1.638 1.64 1.64 0 001.637 1.637 1.64 1.64 0 001.638-1.637 1.64 1.64 0 00-1.638-1.638zM3.611 13.731H.63a.619.619 0 01-.63-.63c0-.357.273-.63.63-.63H3.61c.357 0 .63.273.63.63s-.273.63-.63.63zM17.05 13.73H8.17a.619.619 0 01-.63-.629c0-.357.273-.63.63-.63h8.881c.357 0 .63.273.63.63s-.273.63-.63.63z"/><path d="M5.898 16a2.903 2.903 0 01-2.897-2.897 2.903 2.903 0 012.897-2.898 2.903 2.903 0 012.898 2.898A2.903 2.903 0 015.898 16zm0-4.535a1.64 1.64 0 00-1.638 1.638 1.64 1.64 0 001.638 1.637 1.64 1.64 0 001.638-1.637 1.64 1.64 0 00-1.638-1.638zM3.611 3.528H.63a.619.619 0 01-.63-.63c0-.357.273-.63.63-.63H3.61c.357 0 .63.274.63.63 0 .357-.273.63-.63.63zM17.05 3.528H8.17a.619.619 0 01-.63-.63c0-.356.273-.63.63-.63h8.881c.357 0 .63.274.63.63 0 .357-.273.63-.63.63z"/><path d="M5.898 5.795a2.903 2.903 0 01-2.897-2.898A2.903 2.903 0 015.898 0a2.903 2.903 0 012.898 2.897 2.903 2.903 0 01-2.898 2.898zm0-4.535A1.64 1.64 0 004.26 2.897a1.64 1.64 0 001.638 1.638 1.64 1.64 0 001.638-1.638A1.64 1.64 0 005.898 1.26z"/></svg><svg viewBox="0 0 50 56" id="gift" xmlns="http://www.w3.org/2000/svg"><path d="M49.353 16.357L46.548 8.65a4.927 4.927 0 00-6.308-2.941L35.08 7.585c.009-.05.017-.1.024-.152.339-2.378-.657-4.675-2.663-6.142A6.606 6.606 0 0025.949.52a6.603 6.603 0 00-4.02 5.148l-.736 4.753-3.81-3.368a6.605 6.605 0 00-6.395-1.366c-4.938 1.543-6.29 7.87-2.46 11.307.068.061.139.121.21.18l-5.498 2A4.919 4.919 0 00.3 25.483l2.805 7.708 3.494-1.264v19.151c0 2.714 2.186 4.922 4.9 4.922h32.811a4.927 4.927 0 004.922-4.922V26.251h-27.06l27.182-9.894zm-7.991-7.566c.85-.31 1.793.13 2.102.98l1.684 4.625-15.417 5.611-2.244-6.166 13.875-5.05zM25.174 6.163a3.35 3.35 0 012.038-2.615 3.35 3.35 0 013.292.391c2.205 1.613 1.676 4.702-.838 5.617l-3.301 1.202-2.018.734.827-5.33zm-.77 8.8l2.244 6.167-3.083 1.122-2.245-6.167 3.084-1.122zM11.967 8.818a3.35 3.35 0 013.242.693l4.252 3.76-5.334 1.94a3.326 3.326 0 01-3.408-.66c-1.973-1.77-1.221-4.961 1.248-5.733zM5.065 28.985L3.382 24.36a1.64 1.64 0 01.98-2.103l13.875-5.05 2.244 6.167-15.416 5.611zm27.76.547h13.147v21.546c0 .905-.758 1.64-1.663 1.64H32.825V29.533zm-6.562 0h3.303v23.187h-3.303V29.532zm-3.26 0v23.187H11.498c-.905 0-1.641-.736-1.641-1.64V30.732l3.3-1.201h9.846z"/></svg><svg viewBox="0 0 50 50" id="growth" xmlns="http://www.w3.org/2000/svg"><path d="M49.712 14.714L39.252.593a1.466 1.466 0 00-2.354 0l-10.46 14.121a1.464 1.464 0 001.177 2.337h3.765v7.08a5.35 5.35 0 00-2.458-.596h-2.615a5.393 5.393 0 00-5.387 5.387v3.054a5.352 5.352 0 00-2.458-.596h-2.615a5.393 5.393 0 00-5.387 5.388v3.053a5.357 5.357 0 00-2.458-.596H5.387A5.393 5.393 0 000 44.612v3.923C0 49.345.656 50 1.465 50h41.84c.809 0 1.465-.656 1.465-1.465V17.051h3.765a1.465 1.465 0 001.177-2.337zM2.93 44.612a2.46 2.46 0 012.457-2.457h2.615a2.46 2.46 0 012.458 2.457v2.458H2.93v-2.458zm10.46 0v-7.844a2.46 2.46 0 012.457-2.458h2.615a2.46 2.46 0 012.458 2.458V47.07h-7.53v-2.458zm10.46-7.844v-7.846a2.46 2.46 0 012.457-2.457h2.615a2.46 2.46 0 012.458 2.457V47.07h-7.53V36.768zM43.305 14.12c-.81 0-1.465.656-1.465 1.465V47.07h-7.53V15.586c0-.809-.656-1.465-1.465-1.465h-2.322l7.552-10.195 7.552 10.195h-2.322z"/></svg><svg viewBox="0 0 16 14" id="mail" xmlns="http://www.w3.org/2000/svg"><path d="M14.572 13.286c.36 0 .671-.119.936-.353l-4.533-4.534a81.19 81.19 0 00-.313.226c-.34.25-.615.445-.826.585-.212.14-.493.283-.844.428a2.572 2.572 0 01-.982.22H7.992a2.57 2.57 0 01-.982-.22 5.073 5.073 0 01-.844-.428 21.03 21.03 0 01-.826-.585l-.313-.227-4.534 4.535c.265.234.577.353.937.353h13.142zM.902 5.545A4.734 4.734 0 010 4.768v6.897l3.995-3.996C3.196 7.111 2.166 6.404.902 5.545zM15.108 5.545c-1.216.823-2.25 1.531-3.101 2.126L16 11.665V4.768a4.925 4.925 0 01-.893.777z"/><path d="M14.571.714H1.428C.97.714.618.87.371 1.18.123 1.488 0 1.875 0 2.339c0 .375.164.781.491 1.22a4.43 4.43 0 001.045 1.03c.202.143.812.567 1.83 1.273a590.46 590.46 0 012.34 1.63l.133.094.246.177c.193.14.354.253.482.34.128.086.283.183.464.29.182.107.353.188.514.241.16.054.31.08.446.08h.018c.137 0 .286-.026.446-.08.161-.053.332-.134.514-.241.181-.107.336-.204.464-.29.128-.087.289-.2.482-.34a59.886 59.886 0 01.38-.272l.903-.628 3.275-2.274c.435-.303.798-.67 1.09-1.098.29-.428.437-.878.437-1.348 0-.393-.142-.73-.424-1.01A1.381 1.381 0 0014.57.715z"/></svg><svg viewBox="0 0 16 20" id="mapPicker" xmlns="http://www.w3.org/2000/svg"><path d="M8 0C4.006 0 .757 3.25.757 7.243c0 4.957 6.482 12.233 6.758 12.54.259.29.712.289.97 0 .276-.307 6.758-7.583 6.758-12.54C15.243 3.25 11.994 0 8 0zm0 10.887a3.648 3.648 0 01-3.644-3.644A3.648 3.648 0 018 3.6a3.648 3.648 0 013.644 3.644A3.648 3.648 0 018 10.887z"/></svg><svg viewBox="0 0 24 16" id="mobileNav" xmlns="http://www.w3.org/2000/svg"><path d="M0 0h24v2H0zM0 7h24v2H0zM0 14h24v2H0z"/></svg><svg viewBox="0 0 62 62" id="openBox" xmlns="http://www.w3.org/2000/svg"><path d="M54.51 23.008l7.135-7.136a1.21 1.21 0 00-.5-2.013L43.77 8.495A12.084 12.084 0 0032.21 0c-4.96 0-9.396 3.023-11.233 7.584L.85 13.86a1.21 1.21 0 00-.496 2.012l7.324 7.324-4.62 7.698a1.211 1.211 0 00.656 1.772l6.7 2.233v18.625c0 .504.313.956.785 1.133 4.097 1.536 19.316 7.244 19.398 7.273.24.085.51.096.775.011l.01-.003 21.797-7.266c.495-.164.828-.627.828-1.148V34.4l7.145-2.245a1.211 1.211 0 00.493-2.011l-7.136-7.136zM44.32 12.11c0-.308-.013-.615-.036-.921L58.51 15.58l-6.042 6.042-9.872-3.29a12.144 12.144 0 001.723-6.222zM23.047 8.958a9.69 9.69 0 019.163-6.536 9.668 9.668 0 019.688 9.688 9.57 9.57 0 01-2.159 6.097 9.653 9.653 0 01-7.529 3.59 9.696 9.696 0 01-7.96-4.166 9.617 9.617 0 01-1.727-5.521c0-1.082.176-2.142.524-3.152zM3.483 15.576l16.747-5.222a12.037 12.037 0 001.213 7.298L9.53 21.622l-6.047-6.046zm2.43 15.27l3.828-6.382 19.443 6.481-3.829 6.382-19.443-6.481zm23.875 28.196l-16.953-6.358V35.706c13.339 4.423 12.688 4.288 13.059 4.288.416 0 .815-.215 1.039-.588l2.855-4.76v24.396zM31 28.997l-17.967-5.989 9.784-3.26a12.117 12.117 0 009.394 4.471c3.384 0 6.564-1.393 8.851-3.846l7.906 2.635-17.968 5.99zm20.586 23.654L32.21 59.109V33.725l4.293 5.366c.313.39.832.549 1.309.399l13.773-4.328V52.65zM37.877 36.93l-4.847-6.058 19.44-6.48 6.05 6.05-20.643 6.488z"/><path d="M38.09 7.621a1.211 1.211 0 00-1.713 0l-6.409 6.41-1.566-1.566a1.211 1.211 0 00-1.712 1.713l2.422 2.422c.473.472 1.24.472 1.713 0l7.265-7.266a1.211 1.211 0 000-1.713z"/></svg><svg viewBox="0 0 58 58" id="perfume" xmlns="http://www.w3.org/2000/svg"><path d="M47.466 0a10.523 10.523 0 00-8.505 4.33h-10.5V1.705A1.7 1.7 0 0026.763.006H17.66a1.7 1.7 0 00-1.699 1.7V4.33h-2.79a1.7 1.7 0 000 3.398h2.79v3.077h-.397a1.7 1.7 0 00-1.7 1.7v6.809C5.741 22.61 0 30.57 0 39.84c0 3.525.851 7.033 2.461 10.145a22.366 22.366 0 006.565 7.683 1.7 1.7 0 001.008.331h24.354a1.7 1.7 0 001.008-.331 22.364 22.364 0 006.564-7.683A22.165 22.165 0 0044.42 39.84c0-9.271-5.74-17.23-13.863-20.527v-6.81a1.7 1.7 0 00-1.7-1.699h-.397V7.728h8.852c-.248.897-.382 1.84-.382 2.815 0 5.814 4.726 10.544 10.534 10.544 5.809 0 10.535-4.73 10.535-10.544C58 4.73 53.274 0 47.466 0zM17.262 18.77v-4.566h9.898v4.565h-9.898zM41.023 39.84c0 3.026-.7 5.914-2.081 8.583a18.951 18.951 0 01-5.126 6.178h-23.21a18.952 18.952 0 01-5.126-6.178 18.496 18.496 0 01-2.082-8.583c0-8.142 5.233-15.088 12.521-17.673h12.583c7.289 2.585 12.521 9.53 12.521 17.673zM19.358 10.805v-7.4h5.705v7.4h-5.705zm28.108 6.883c-3.935 0-7.136-3.205-7.136-7.145 0-3.94 3.2-7.145 7.136-7.145 3.934 0 7.136 3.206 7.136 7.145 0 3.94-3.202 7.145-7.136 7.145z"/></svg><svg fill="none" viewBox="0 0 10 10" id="plus" xmlns="http://www.w3.org/2000/svg"><path d="M.12 6.56v-2.8h3.36V.4h2.8v3.36h3.36v2.8H6.28v3.36h-2.8V6.56H.12z" fill="#CD3767"/></svg><svg viewBox="0 0 21 24" id="profile" xmlns="http://www.w3.org/2000/svg"><path d="M10.828 11.56c1.588 0 2.963-.569 4.087-1.693 1.123-1.123 1.693-2.498 1.693-4.087 0-1.588-.57-2.963-1.693-4.087C13.79.57 12.415 0 10.828 0 9.239 0 7.864.57 6.74 1.693c-1.123 1.124-1.693 2.5-1.693 4.087 0 1.589.57 2.964 1.694 4.088 1.123 1.123 2.499 1.693 4.087 1.693zM20.944 18.455a14.272 14.272 0 00-.195-1.517 11.953 11.953 0 00-.373-1.524 7.528 7.528 0 00-.627-1.422 5.366 5.366 0 00-.945-1.232 4.166 4.166 0 00-1.358-.853 4.692 4.692 0 00-1.733-.314c-.245 0-.482.1-.94.399-.281.183-.61.396-.978.63-.315.2-.74.389-1.266.559a5.028 5.028 0 01-1.55.25 5.033 5.033 0 01-1.548-.25c-.526-.17-.952-.358-1.266-.558-.364-.233-.693-.445-.98-.631-.456-.299-.693-.399-.938-.399-.624 0-1.207.106-1.734.314a4.166 4.166 0 00-1.357.853 5.367 5.367 0 00-.945 1.232c-.26.458-.472.937-.627 1.422-.15.469-.275.982-.373 1.524a14.232 14.232 0 00-.194 1.517c-.032.46-.048.936-.048 1.418 0 1.252.398 2.267 1.183 3.015.776.738 1.802 1.112 3.05 1.112H16.76c1.247 0 2.273-.374 3.05-1.112.785-.748 1.183-1.762 1.183-3.016 0-.483-.016-.96-.049-1.417z"/></svg><svg viewBox="0 0 44 50" id="quality" xmlns="http://www.w3.org/2000/svg"><path d="M43.24 13.566l-.002-.039c-.021-.48-.036-.988-.045-1.553-.04-2.757-2.232-5.038-4.99-5.192-5.748-.32-10.195-2.195-13.995-5.899l-.032-.03a3.2 3.2 0 00-4.35 0l-.032.03c-3.8 3.704-8.247 5.578-13.995 5.9-2.757.153-4.949 2.434-4.99 5.19-.008.562-.023 1.07-.045 1.554l-.002.09c-.112 5.863-.25 13.158 2.19 19.78 1.342 3.642 3.374 6.807 6.04 9.41 3.037 2.962 7.014 5.315 11.821 6.991a3.648 3.648 0 001.188.202 3.586 3.586 0 001.19-.203c4.802-1.679 8.775-4.033 11.808-6.995 2.665-2.603 4.698-5.77 6.041-9.412 2.45-6.641 2.311-13.95 2.2-19.824zm-4.953 18.81c-2.574 6.979-7.829 11.772-16.064 14.652a.658.658 0 01-.443 0c-8.245-2.875-13.503-7.665-16.075-14.645-2.25-6.104-2.122-12.801-2.01-18.71l.001-.032c.023-.508.038-1.04.047-1.624a2.355 2.355 0 012.22-2.305c3.253-.182 6.11-.81 8.737-1.922 2.622-1.11 4.951-2.675 7.12-4.784a.27.27 0 01.363 0c2.169 2.11 4.498 3.674 7.12 4.784 2.626 1.112 5.484 1.74 8.738 1.922a2.355 2.355 0 012.219 2.305c.009.588.024 1.12.047 1.624.112 5.915.236 12.617-2.02 18.734z"/><path d="M22 12.54c-6.87 0-12.46 5.59-12.46 12.46 0 6.872 5.59 12.462 12.46 12.462 6.871 0 12.462-5.59 12.462-12.461 0-6.87-5.59-12.461-12.461-12.461zm0 21.988c-5.253 0-9.526-4.274-9.526-9.527 0-5.254 4.273-9.527 9.527-9.527 5.253 0 9.526 4.273 9.526 9.527 0 5.253-4.273 9.527-9.526 9.527z"/><path d="M25.582 21.132l-5.787 5.788-1.571-1.571a1.467 1.467 0 00-2.075 2.075l2.609 2.608a1.462 1.462 0 002.074 0l6.825-6.825a1.467 1.467 0 00-2.075-2.075z"/></svg><svg viewBox="0 0 18 18" id="search" xmlns="http://www.w3.org/2000/svg"><path d="M11.524 11.429L17 17m-3.652-9.82a6.176 6.176 0 01-8.536 5.71A6.178 6.178 0 011.47 4.818 6.18 6.18 0 017.177 1c3.41 0 6.172 2.77 6.172 6.181h-.001z"/></svg><svg viewBox="0 0 18 18" id="star" xmlns="http://www.w3.org/2000/svg"><path d="M17.953 6.904a.955.955 0 00-.823-.657l-5.196-.472L9.88.968a.957.957 0 00-1.76 0L6.067 5.775.87 6.247a.958.958 0 00-.544 1.674l3.928 3.444-1.158 5.1A.956.956 0 004.519 17.5L9 14.821l4.48 2.68a.956.956 0 001.425-1.035l-1.158-5.1 3.928-3.445a.958.958 0 00.279-1.017z"/></svg><svg viewBox="0 0 62 62" id="thumbsUp" xmlns="http://www.w3.org/2000/svg"><path d="M14.688 20.5H3.812C2.812 20.5 2 21.311 2 22.313v32.625c0 1.002.81 1.813 1.813 1.813h10.874c1.002 0 1.813-.811 1.813-1.813V22.313c0-1.002-.81-1.813-1.813-1.813zm-1.813 32.626h-7.25v-29h7.25v29zM53.306 24.125H42.597a1.781 1.781 0 01-1.563-.894 1.783 1.783 0 01-.023-1.798l3.776-6.8a5.392 5.392 0 00.235-4.801 5.393 5.393 0 00-3.67-3.112l-2.663-.665a1.809 1.809 0 00-1.786.545L22.449 22.657a9.058 9.058 0 00-2.324 6.063v15.342c0 4.997 4.066 9.063 9.063 9.063l18.03-.002a9.083 9.083 0 008.741-6.666l3.87-14.132a6.703 6.703 0 00-6.523-8.2zm3.007 7.312l-3.852 14.062c-.644 2.355-2.8 4-5.242 4H29.187a5.443 5.443 0 01-5.437-5.437V28.72c0-1.345.496-2.638 1.395-3.638L38.868 9.835l1.603.4c.553.139.999.517 1.225 1.04.227.52.199 1.102-.078 1.6l-3.775 6.798a5.386 5.386 0 00.067 5.397 5.39 5.39 0 004.687 2.68h10.709a3.073 3.073 0 013.007 3.687z"/></svg><svg viewBox="0 0 16 16" id="trash" xmlns="http://www.w3.org/2000/svg"><path d="M12.758 3.078l-1.02 11.625H4.259L3.24 3.078l-1.292.114 1.039 11.835c.054.545.528.973 1.078.973h7.87c.55 0 1.023-.428 1.079-.981L14.05 3.192l-1.292-.114z"/><path d="M10.379 0H5.622c-.596 0-1.081.485-1.081 1.081v2.054h1.297V1.297h4.325v1.838h1.297V1.081C11.46.485 10.975 0 10.379 0z"/><path d="M14.918 2.487H1.08a.649.649 0 100 1.297h13.838a.649.649 0 100-1.297z"/></svg><svg viewBox="0 0 62 62" id="truck" xmlns="http://www.w3.org/2000/svg"><path d="M46.826 36.861c-4.31 0-7.816 3.506-7.816 7.816 0 4.309 3.506 7.815 7.816 7.815 4.31 0 7.815-3.506 7.815-7.816 0-4.309-3.506-7.815-7.815-7.815zm0 11.723a3.912 3.912 0 01-3.908-3.908 3.912 3.912 0 013.908-3.907 3.912 3.912 0 013.907 3.907 3.912 3.912 0 01-3.907 3.908zM20.124 36.861c-4.31 0-7.815 3.506-7.815 7.816 0 4.309 3.506 7.815 7.815 7.815 4.31 0 7.815-3.506 7.815-7.816 0-4.309-3.506-7.815-7.815-7.815zm0 11.723a3.912 3.912 0 01-3.908-3.908 3.912 3.912 0 013.908-3.907 3.912 3.912 0 013.908 3.907 3.912 3.912 0 01-3.908 3.908zM52.089 14.492a1.955 1.955 0 00-1.746-1.076h-10.29v3.908h9.085l5.32 10.581 3.492-1.756-5.861-11.657z"/><path d="M40.964 42.788H26.181v3.907h14.783v-3.907zM14.262 42.788H7.49a1.954 1.954 0 100 3.907h6.773a1.954 1.954 0 100-3.907zM61.59 30.844l-3.844-4.95a1.95 1.95 0 00-1.542-.755H42.006V11.462c0-1.08-.874-1.954-1.954-1.954H7.49a1.954 1.954 0 100 3.908H38.1v13.676c0 1.08.874 1.954 1.953 1.954h15.195l2.845 3.665v10.077h-5.405a1.954 1.954 0 100 3.907h7.359c1.08 0 1.954-.875 1.954-1.954v-12.7c0-.433-.145-.855-.41-1.197zM14.132 32.889H5.145a1.954 1.954 0 100 3.907h8.987a1.954 1.954 0 100-3.907zM18.626 25.204H1.954a1.954 1.954 0 100 3.907h16.672a1.954 1.954 0 100-3.907z"/><path d="M21.817 17.519H5.145a1.954 1.954 0 100 3.907h16.672a1.954 1.954 0 100-3.907z"/></svg></svg>